<svg version="1.1" xmlns="http://www.w3.org/2000/svg" width="41" height="55" viewBox="477 483 41 55">

              <style>
                path, text, g, .sym-line, [font-family*="Line"] { fill: #2267b2 !important; }
                [fill="white"], [fill="#ffffff"], [fill="#fff"], .sym-fill, [font-family*="Fill"] { fill: none !important; }
              </style>
            

  <text font-size="0">M518x538S33b00482x483S16d02496x514S22e04477x520</text>
  <svg x="482" y="483"><g transform="translate(0.149874875465,34.7500790925) scale(0.00988906872676,-0.00988956850125)"><path class="sym-line" d="M1528 3484 c-592 -92 -1088 -447 -1348 -963 -125 -249 -180 -485 -180 -771 0 -480 183 -911 529 -1242 350 -336 780 -508 1271 -508 451 0 864 150 1193 434 326 281 517 620 591 1051 21 121 21 409 0 530 -43 252 -114 444 -237 639 -282 453 -741 750 -1284 831 -127 19 -413 18 -535 -1z m607 -173 c583 -126 1038 -523 1224 -1069 59 -173 75 -277 75 -492 0 -165 -3 -211 -22 -300 -71 -327 -228 -611 -458 -829 -186 -177 -381 -295 -614 -374 -176 -60 -282 -78 -490 -84 -247 -7 -416 19 -628 97 -549 201 -944 674 -1043 1250 -17 97 -17 383 0 480 99 576 495 1050 1043 1250 105 38 177 58 303 81 143 26 467 21 610 -10z M1020 875 l0 -75 780 0 780 0 0 75 0 75 -780 0 -780 0 0 -75z"/></g></svg>
  <svg x="496" y="514"><g transform="translate(0.127562331113,16.7236332598) scale(0.00981062903428,-0.00976668221626)"><path class="sym-fill" fill="#ffffff" d="M682 1589 c-160 -20 -268 -72 -372 -178 -96 -97 -166 -235 -185 -366 l-7 -45 887 0 887 0 -7 43 c-36 231 -198 424 -422 502 -126 44 -225 55 -482 54 -130 -1 -264 -5 -299 -10z"/><path class="sym-line" d="M595 1685 c-241 -54 -405 -185 -510 -406 -55 -116 -76 -214 -82 -371 -18 -474 222 -802 650 -893 38 -8 86 -15 108 -15 l39 0 0 104 0 103 -43 5 c-100 12 -193 90 -252 212 -52 109 -95 297 -95 419 l0 57 690 0 690 0 0 -78 c0 -239 -72 -482 -179 -603 -44 -50 -144 -109 -185 -109 -25 0 -26 -2 -26 -56 l0 -57 69 5 c135 10 277 103 364 240 103 161 166 411 167 660 0 347 -136 578 -421 713 -155 73 -193 78 -579 81 -261 2 -360 -1 -405 -11z m760 -105 c156 -35 304 -118 394 -224 68 -80 141 -252 141 -333 l0 -23 -890 0 -890 0 6 28 c56 249 165 412 333 496 130 65 188 73 531 75 250 0 296 -2 375 -19z"/></g></svg>
  <svg x="477" y="520"><g transform="translate(0.148419548564,17.7025952004) scale(0.00976652257182,-0.00975230983354)"><path class="sym-fill" fill="#ffffff" d="M700 1050 l0 -350 150 0 150 0 0 350 0 350 -150 0 -150 0 0 -350z"/><path class="sym-line" d="M0 1700 l0 -100 850 0 850 0 0 100 0 100 -850 0 -850 0 0 -100z M500 1050 l0 -350 -177 0 -178 0 353 -352 352 -353 352 353 353 352 -178 0 -177 0 0 350 0 350 -100 0 -100 0 0 -350 0 -350 -150 0 -150 0 0 350 0 350 -100 0 -100 0 0 -350z"/></g></svg>
</svg>