<svg version="1.1" xmlns="http://www.w3.org/2000/svg" width="49" height="36" viewBox="476 482 49 36">

              <style>
                path, text, g, .sym-line, [font-family*="Line"] { fill: #2267b2 !important; }
                [fill="white"], [fill="#ffffff"], [fill="#fff"], .sym-fill, [font-family*="Fill"] { fill: none !important; }
              </style>
            

  <text font-size="0">M525x518S16d48479x498S12951497x482S21d00476x486</text>
  <svg x="479" y="498"><g transform="translate(0.140419808728,19.7193170115) scale(0.00976677418001,-0.00978543975573)"><path class="sym-fill" fill="#ffffff" d="M615 1859 c-38 -11 -96 -32 -127 -46 l-58 -26 0 -789 0 -788 31 -19 c40 -24 170 -67 232 -75 l47 -7 0 885 0 886 -27 -1 c-16 0 -59 -9 -98 -20z"/><path class="sym-line" d="M635 1975 c-294 -68 -491 -222 -583 -455 -49 -125 -54 -175 -50 -532 4 -330 4 -334 32 -423 45 -147 98 -237 201 -341 73 -74 106 -98 175 -132 109 -54 220 -83 343 -89 l97 -6 0 1002 0 1001 -57 -1 c-32 0 -103 -11 -158 -24z m105 -976 l0 -892 -49 6 c-60 7 -194 51 -238 79 l-33 20 0 787 0 788 58 26 c85 37 177 65 255 76 4 1 7 -400 7 -890z M1052 1784 l3 -208 69 -13 c148 -27 280 -83 359 -153 55 -49 85 -101 94 -165 l6 -45 108 0 109 0 0 39 c0 103 -64 290 -137 396 -128 189 -315 302 -576 349 l-37 7 2 -207z M1684 565 c-10 -54 -75 -147 -132 -188 -101 -74 -242 -126 -409 -150 l-88 -13 -3 -102 c-3 -102 -3 -103 20 -98 13 3 69 14 126 26 354 72 580 257 599 491 l6 69 -56 0 -56 0 -7 -35z"/></g></svg>
  <svg x="497" y="482"><g transform="translate(0.137532143744,19.869037177) scale(0.00991530522854,-0.0098741683255)"><path class="sym-line" d="M1445 1534 c-247 -256 -478 -497 -513 -535 l-63 -69 442 -457 c243 -252 445 -459 449 -461 10 -4 1025 1048 1025 1063 0 11 -868 917 -883 922 -4 2 -209 -207 -457 -463z M505 1753 c-87 -31 -139 -69 -244 -176 -158 -162 -191 -222 -191 -352 0 -70 26 -172 51 -199 5 -5 -7 -27 -27 -49 -87 -96 -116 -242 -74 -366 30 -90 73 -151 186 -266 126 -128 198 -167 319 -173 65 -3 91 0 140 19 53 20 80 42 238 197 97 97 177 181 177 189 0 7 -30 45 -67 84 l-68 72 -150 -156 c-191 -198 -237 -222 -331 -177 -51 25 -220 197 -240 245 -21 51 -18 115 9 164 32 60 272 298 315 312 47 16 106 6 154 -26 46 -31 44 -32 130 67 l49 57 -33 30 c-148 134 -353 126 -513 -21 -60 -54 -74 -48 -54 26 15 55 64 119 159 209 90 85 131 102 203 84 34 -9 65 -33 173 -138 l130 -129 67 68 c37 37 67 73 67 79 0 7 -60 72 -132 146 -157 158 -205 188 -321 194 -52 3 -86 -2 -122 -14z"/></g></svg>
  <svg x="476" y="486"><g transform="translate(0.14408817461,7.7569354617) scale(0.00978355125495,-0.00959794917003)"><path class="sym-fill" fill="#ffffff" d="M309 572 c-43 -22 -59 -38 -81 -81 -16 -31 -28 -69 -28 -91 0 -22 12 -60 28 -91 22 -43 38 -59 81 -81 68 -36 114 -36 182 0 43 22 59 38 81 81 36 68 36 114 0 182 -22 43 -38 59 -81 81 -31 16 -69 28 -91 28 -22 0 -60 -12 -91 -28z M1309 572 c-43 -22 -59 -38 -81 -81 -36 -68 -36 -114 0 -182 22 -43 38 -59 81 -81 68 -36 114 -36 182 0 43 22 59 38 81 81 16 31 28 69 28 91 0 22 -12 60 -28 91 -22 43 -38 59 -81 81 -31 16 -69 28 -91 28 -22 0 -60 -12 -91 -28z"/><path class="sym-line" d="M275 784 c-126 -44 -218 -136 -258 -258 -22 -64 -22 -188 0 -252 56 -169 203 -274 383 -274 180 0 327 105 383 274 22 64 22 188 0 252 -41 122 -134 216 -257 257 -61 21 -195 21 -251 1z m203 -199 c104 -44 151 -167 103 -270 -71 -153 -291 -153 -362 0 -33 72 -19 166 34 224 52 56 151 76 225 46z M1275 784 c-90 -32 -160 -84 -208 -157 -48 -73 -67 -137 -67 -227 0 -230 170 -400 400 -400 180 0 327 105 383 274 22 64 22 188 0 252 -41 122 -134 216 -257 257 -61 21 -195 21 -251 1z m203 -199 c49 -21 81 -52 103 -100 35 -75 16 -179 -42 -232 -75 -69 -203 -69 -278 0 -76 70 -80 208 -8 286 52 56 151 76 225 46z"/></g></svg>
</svg>